<?xml version="1.0" encoding="utf-8"?>
<!-- Generator: Adobe Illustrator 24.3.0, SVG Export Plug-In . SVG Version: 6.00 Build 0)  -->
<svg version="1.1" id="Layer_1" xmlns="http://www.w3.org/2000/svg" xmlns:xlink="http://www.w3.org/1999/xlink" x="0px" y="0px"
	 viewBox="0 0 960 1280" style="enable-background:new 0 0 960 1280;" xml:space="preserve">
<style type="text/css">
	.st0{opacity:0.3;}
	.st1{fill:#9E9E9E;}
</style>
<g transform="translate(0.000000,1280.000000) scale(0.100000,-0.100000)" class="st0">
	<path class="st1" d="M4892,11974l-332-576l331-574l331-574h668h667l329,571c181,315,328,577,326,583s-150,266-330,578l-327,568
		h-665h-666L4892,11974z"/>
	<path class="st1" d="M2748,10733c-174-302-324-562-334-578l-17-31l333-577l333-577l665,2l664,3l329,570c181,313,329,574,329,580
		c0,5-148,267-329,580l-329,570l-664,3l-665,2L2748,10733z"/>
	<path class="st1" d="M7396,11243c-51-79-646-1117-644-1124c2-3,151-263,333-578l330-571l664,2l665,3l332,575
		c238,411,330,579,323,590c-4,8-154,267-332,575l-323,560l-662,3l-662,2L7396,11243z"/>
	<path class="st1" d="M823,9997c-137-231-637-1104-639-1116c-3-9,144-272,325-586l329-570l665-3l664-2l332,574
		c182,316,331,578,331,581s-149,264-332,580l-331,575h-663H842L823,9997z"/>
	<path class="st1" d="M5222,10018c-20-26-655-1133-655-1143c0-9,579-1021,640-1117l23-38h663h662l329,572c181,315,329,577,329,583
		c0,9-575,1014-640,1118l-23,37h-659C5376,10030,5230,10027,5222,10018z"/>
	<path class="st1" d="M2732,8205c-183-316-332-577-332-580s149-264,332-580l331-575l665,2l664,3l329,570c181,313,329,574,329,580
		s-148,267-329,580l-329,570l-664,3l-665,2L2732,8205z"/>
	<path class="st1" d="M7081,8205l-332-576l330-572l330-572l668-2l668-3l331,575l332,574l-332,575l-331,576h-666h-666L7081,8205z"/>
	<path class="st1" d="M837,7543c-336-580-651-1131-654-1143c-2-8,144-271,325-585l329-570l666-3l665-2l332,576
		c256,444,330,580,324,594c-5,10-155,270-333,579l-325,561h-662C1139,7550,839,7547,837,7543z"/>
	<path class="st1" d="M4932,6944l-333-576l332-574l331-574h667h667l329,572c182,314,329,576,327,582s-150,266-330,578l-327,568h-666
		h-665L4932,6944z"/>
	<path class="st1" d="M2730,5703l-333-577l17-31c10-16,160-276,334-578l315-547l665,2l664,3l329,570c181,314,329,575,329,580
		c0,6-148,267-329,580l-329,570l-664,3l-665,2L2730,5703z"/>
	<path class="st1" d="M7400,6209c-222-379-620-1076-620-1084c0-6,148-267,329-580l329-570l664-3l664-2l325,561
		c178,309,328,570,332,579c7,13-74,161-324,593l-332,577h-663h-663L7400,6209z"/>
	<path class="st1" d="M508,4491c-181-313-328-573-328-579c0-5,148-265,328-578l329-569h667h667l315,545c174,300,322,559,331,575
		l15,31l-329,569l-329,570l-669,2l-670,3L508,4491z"/>
	<path class="st1" d="M4892,4426l-331-574l332-576l332-576h665h665l332,576l333,576l-331,574l-331,574h-668h-667L4892,4426z"/>
	<path class="st1" d="M7426,3748c-37-59-646-1121-646-1127c0-3,148-262,329-576l329-570h668h668l328,569c181,313,328,575,326,583
		c-2,7-149,267-328,577l-325,565l-667,1h-668L7426,3748z"/>
	<path class="st1" d="M2730,3174c-253-439-330-580-324-594c5-9,155-270,333-579l325-561l664,2l664,3l329,570
		c181,314,329,575,329,581s-148,267-329,580l-328,569l-665,3l-666,2L2730,3174z"/>
	<path class="st1" d="M510,1924c-179-311-326-572-327-582c-1-9,145-271,325-582l327-565h669h668l329,570c181,313,329,572,329,575
		c0,4-148,263-329,576l-328,569l-669,2l-669,2L510,1924z"/>
	<path class="st1" d="M5158,2363c-41-71-190-329-332-575l-258-448l330-572l331-573l668-2l668-3l320,556c176,305,324,565,329,578
		c7,19-41,109-320,594l-329,572h-667h-666L5158,2363z"/>
</g>
</svg>
